# xmcd
#
# Track frame offsets: 
#        150
#        2812
#        26162
#        52322
#        73737
#        92825
#        111435
#        130192
#        150035
#        155602
#        176497
#        194245
#        196715
#        213832
#        230560
#        251885
#        253437
#
# Disc length: 3694 seconds
#
# Revision: 2
# Processed by: cddbd v1.5.2PL0 Copyright (c) Steve Scherf et al.
# Submitted via: ExactAudioCopy v0.99pb3
#
DISCID=fb0e6c11
DTITLE=Lucifer's Friend II - Sumogrip
DYEAR=1994
DGENRE=Hard Rock
TTITLE0=Get In
TTITLE1=Heartbreaker
TTITLE2=One Way Ticket To Hell
TTITLE3=Don't Look Back
TTITLE4=You Touched Me
TTITLE5=Cadillac
TTITLE6=Step By Step
TTITLE7=Rebound
TTITLE8=Sumogrip
TTITLE9=Sheree
TTITLE10=Back In The Track
TTITLE11=Banzai
TTITLE12=Any Day Now
TTITLE13=Ride The Sky
TTITLE14=Free Me
TTITLE15=Get Out
TTITLE16=You Touched Me With Your Heart
EXTD=YEAR: 1994
EXTT0=
EXTT1=
EXTT2=
EXTT3=
EXTT4=
EXTT5=
EXTT6=
EXTT7=
EXTT8=
EXTT9=
EXTT10=
EXTT11=
EXTT12=
EXTT13=
EXTT14=
EXTT15=
EXTT16=
PLAYORDER=
